<svg width="129" height="97" viewBox="0 0 129 97" fill="none" xmlns="http://www.w3.org/2000/svg">
<path fill-rule="evenodd" clip-rule="evenodd" d="M80.7512 30.0432C77.1116 32.5358 73.2344 34.4731 68.7872 34.9977C67.3415 35.1679 65.776 35.5508 64.8172 33.4897C64.7597 34.1595 64.7331 34.4685 64.7073 34.7762C64.4907 36.1072 65.0526 37.5211 64.3193 38.9946C60.2988 35.2145 56.1288 31.8599 51.5254 28.5379C53.6073 27.946 55.3787 28.7317 56.9947 27.9836C60.17 27.863 61.3695 25.1782 63.1518 23.2455C63.3981 22.9785 63.22 22.744 63.1042 22.5827C62.0691 21.1496 62.4363 19.7208 63.3131 18.084C61.0876 18.5095 59.8971 17.8188 60.0029 15.63C60.1552 14.5296 60.0584 13.3627 60.8351 12.4238C61.6357 13.3391 63.1597 13.7823 62.8023 15.4637C62.7768 15.5835 62.9953 15.8822 63.1061 15.8853C64.5182 15.9257 65.4812 16.9372 66.629 17.522C68.2509 18.3481 69.8779 19.2587 70.0501 21.402C69.6156 21.402 69.1811 21.402 68.6588 21.402C71.0198 23.1762 71.1674 24.0333 69.6293 26.7657C69.4355 27.1099 69.2018 27.4415 69.5651 27.7758C69.8739 28.06 70.3014 28.052 70.6448 27.8857C71.5216 27.4613 69.8462 27.6739 70.4361 26.8565C72.1023 24.5488 71.9085 23.7799 70.0372 21.3872C71.6552 22.0363 72.904 23.2396 74.2754 24.25C76.0022 25.5207 77.5253 27.0773 79.5262 27.9581C77.0056 30.4686 73.7085 31.6501 70.6052 33.1769C74.1893 32.9651 76.9245 30.9 79.7486 29.0316C80.0833 29.3682 80.4168 29.7057 80.7512 30.0432V30.0432Z" fill="#D7B369"/>
<path fill-rule="evenodd" clip-rule="evenodd" d="M59.4286 15.6329C59.4393 16.2752 59.4495 16.9184 59.4601 17.5605C59.3614 17.9731 59.399 18.3591 59.6927 18.6915C59.5791 20.0374 60.2707 21.2694 60.1826 22.6371C60.0707 24.3847 59.3336 25.5275 57.6295 26.0046C55.7305 26.5359 53.8087 26.5915 51.418 26.4459C53.892 24.0027 53.5793 21.2181 53.5782 18.4907C53.5773 15.5655 54.0075 12.7711 56.2639 10.6078C58.1411 10.0982 58.7903 11.7153 59.8245 12.6662C59.8155 12.7779 59.776 12.878 59.7056 12.9661C59.2584 13.2746 59.3345 13.7103 59.4206 14.1476C59.4236 14.6424 59.4256 15.138 59.4286 15.6329H59.4286Z" fill="#D7B369"/>
<path fill-rule="evenodd" clip-rule="evenodd" d="M79.528 27.9585C77.5263 27.0769 76.003 25.5212 74.2762 24.2497C72.9048 23.2393 71.656 22.037 70.0388 21.3868L70.0509 21.4025C69.8787 19.2592 68.253 18.3478 66.6299 17.5217C65.4829 16.9377 64.5191 15.9253 63.1082 15.8849C62.9962 15.8819 62.7776 15.5831 62.8031 15.4633C63.1614 13.7831 61.6365 13.3396 60.8359 12.4243C61.1942 11.2992 62.0828 10.8439 63.1398 10.5996C65.103 11.608 66.252 13.6425 68.2658 14.6193C68.974 14.9626 68.8801 15.6928 68.3289 16.2706C68.9653 17.0218 69.5135 17.8619 70.4279 18.329C71.5519 20.0617 73.3006 19.8103 74.9848 19.7649C75.8793 19.7629 76.6345 20.2014 77.1422 20.8278C77.9683 21.848 79.0707 22.4861 80.0576 23.2839C79.9883 23.5184 79.9486 23.7678 79.8446 23.9854C79.3439 25.0393 79.9495 24.6415 80.4185 24.4306C81.0578 24.7938 81.5436 25.271 81.614 26.0536C81.4993 26.4236 80.9608 26.6216 81.1776 27.1263L81.1924 27.1106C80.3879 26.9016 80.1684 27.8427 79.528 27.9585V27.9585Z" fill="#D7B369"/>
<path fill-rule="evenodd" clip-rule="evenodd" d="M46.4533 41.3267C47.5745 40.1034 48.3007 38.7477 47.4645 37.0487C46.9313 38.4142 47.0679 39.946 46.4533 41.3267ZM50.0623 35.1805C49.5972 39.4829 48.2979 43.2572 44.0536 45.382C43.4609 45.6788 42.7472 45.1899 42.3444 45.8659C41.5876 45.6777 40.4981 46.4614 40.1388 45.1116L40.1348 45.1156C40.7255 45.1807 41.0818 44.876 41.3073 44.3675C43.7755 42.218 40.0686 42.9405 40.3098 41.653C42.9312 40.8118 41.9645 37.7997 43.2302 35.9371C43.8366 35.9837 43.9873 35.3651 44.4027 35.1326C44.762 35.0109 44.7648 34.709 44.7668 34.4075L44.7688 34.4055C45.601 34.2751 45.325 33.2616 45.9287 32.9492C46.7578 34.5601 49.1298 34.6886 49.6011 36.8162C49.8642 36.2482 49.5643 35.5772 50.0622 35.1806L50.0623 35.1805Z" fill="#D7B369"/>
<path fill-rule="evenodd" clip-rule="evenodd" d="M56.9953 27.9844C55.3793 28.7325 53.6079 27.9468 51.5268 28.5375C56.1302 31.8604 60.2994 35.2142 64.3199 38.9943C65.0532 37.5219 64.4922 36.1079 64.7079 34.7769C65.2571 37.0498 65.5926 39.2972 63.9034 41.2942C63.2344 41.6611 62.7575 41.2515 62.1875 40.9607C60.3143 40.0047 59.1328 38.0226 56.9863 37.4911C56.8775 37.4436 56.7647 37.4307 56.6478 37.4526L56.6607 37.4626C55.7364 36.1574 55.4306 34.6127 55.2814 33.0087C55.119 33.0393 54.9577 33.071 54.7953 33.1027C54.7549 34.0188 54.7134 34.9353 54.6727 35.8525C54.4076 36.0604 54.1434 36.2682 53.8792 36.4769C53.7871 36.2831 53.696 36.0901 53.604 35.8971C53.6 34.8946 53.596 33.8932 53.5911 32.8909C53.5633 32.2873 54.3462 31.5776 53.6662 31.1324C52.949 30.6623 52.3372 31.5608 51.6337 31.7083C50.3997 30.7812 48.3198 31.0702 47.8379 29.0642C50.7321 27.3652 53.9089 28.0578 56.9953 27.9846V27.9844Z" fill="#D7B369"/>
<path fill-rule="evenodd" clip-rule="evenodd" d="M85.5672 19.0127C86.4845 20.1101 84.8875 21.0669 85.393 22.1406L85.409 22.123C85.1476 22.2554 84.8856 22.3869 84.6242 22.5188C83.6752 22.4781 83.0637 21.7695 82.3066 21.3491C82.455 19.9081 82.7857 18.4455 81.7088 16.7061C81.609 18.2983 81.5369 19.4657 81.4634 20.6326C79.513 19.0245 77.5239 17.4601 75.6271 15.7905C74.7741 15.0396 74.0476 14.8149 73.166 15.6225C74.9205 13.4831 73.8804 11.0258 73.9556 8.69531C74.7197 8.75371 74.8858 9.49313 75.2838 9.93323C76.2109 10.9576 76.1278 9.82052 76.4168 9.46622C76.6799 10.6914 76.205 12.1439 77.5517 13.1425C77.9635 12.1145 76.8412 11.4721 77.0729 10.5826C77.4064 10.9585 77.7941 11.299 78.0645 11.7156C79.7882 14.3714 82.556 15.7669 85.0199 17.5294C84.9608 18.1131 85.1162 18.6177 85.5672 19.0127Z" fill="#D7B369"/>
<path fill-rule="evenodd" clip-rule="evenodd" d="M59.5557 45.0764C57.6735 44.9519 56.9234 45.9275 56.8968 47.7138C56.869 49.5702 56.9403 51.4008 57.8152 53.0892C58.1002 53.6403 58.4126 54.4704 58.8671 54.5901C61.234 55.2146 60.5998 57.0247 60.8421 58.8196C59.1212 58.0825 57.0631 58.3764 56.8612 55.9559C56.8412 55.7133 56.4783 55.4008 56.207 55.2979C55.1018 54.8751 54.9127 54.3627 55.354 53.1503C55.9001 51.6513 55.0513 50.1828 54.3099 48.8597C52.7088 45.9979 52.6684 45.9948 55.3649 44.1443C56.2783 43.5168 56.301 42.3681 57.0037 41.6377C57.154 42.006 56.8177 42.9025 57.6954 42.5036C58.3159 42.2217 58.5888 42.3028 58.5265 42.8994C58.3563 44.5432 59.5083 44.3463 60.4949 44.4156C60.3473 44.8706 59.8376 44.8122 59.5557 45.0764V45.0764Z" fill="#D7B369"/>
<path fill-rule="evenodd" clip-rule="evenodd" d="M75.9141 4.53092C76.8314 3.21872 78.0723 2.70623 79.6476 3.01673C80.6094 3.47203 81.4308 4.13402 82.3037 4.72782C84.0838 5.93792 85.3092 7.99243 87.6565 8.35563C88.0957 9.10853 88.5182 9.8726 88.9813 10.6109C89.307 11.1304 90.3628 11.4311 89.5998 12.2653C88.8556 13.0788 87.9246 13.7052 86.7588 13.1085C86.271 12.858 85.8385 12.4345 85.4834 12.0061C84.8379 11.2272 84.2908 10.4813 83.0518 10.6258C81.9772 10.7503 81.8375 9.47681 81.1418 8.98511C81.0193 6.71581 78.4336 4.51412 75.9141 4.53092V4.53092Z" fill="#D7B369"/>
<path fill-rule="evenodd" clip-rule="evenodd" d="M85.3925 22.1401C86.5126 20.7281 88.0753 20.6576 89.6832 20.725C89.8941 21.7483 90.5463 22.3124 91.5457 22.5152C91.4624 22.8131 91.4565 23.1672 91.2863 23.4018C89.8633 25.3659 89.8338 25.4869 92.3155 25.8787C93.5932 26.0804 93.9186 26.5752 93.7901 27.7105C93.5744 29.626 94.1343 31.5935 93.4089 33.4777C93.1676 32.8768 93.9028 32.0398 92.9289 31.6042C91.9087 31.1481 91.4377 31.9753 90.8105 32.4533C91.8793 28.3783 91.8793 28.3783 87.6893 28.2041C88.955 26.7713 88.8144 26.2479 86.9729 25.1522C86.0178 24.5833 84.9294 24.1113 84.6582 22.8428C85.16 22.8644 85.452 22.6686 85.4082 22.1222L85.3925 22.1401Z" fill="#D7B369"/>
<path fill-rule="evenodd" clip-rule="evenodd" d="M63.1602 7.53821C64.4783 6.71791 64.5941 5.61639 64.4485 4.10449C64.3141 2.69709 64.6594 1.02669 66.6325 0.696289C66.8494 1.07919 67.2629 0.917895 67.5659 1.0416C68.1249 1.2722 67.7864 1.37511 67.4669 1.44131C66.9126 1.44431 66.3217 1.37621 66.1498 2.12131C65.2005 2.49431 65.0432 3.26631 65.1946 4.14011C65.2373 4.38551 65.5611 4.54569 65.8062 4.38049C66.5328 3.89069 66.0645 3.08421 66.2665 2.44891C66.2861 2.38941 66.2822 2.3221 66.2881 2.2587C66.5099 2.238 66.7316 2.21721 66.9532 2.19641C67.9656 2.43011 68.5277 3.3375 69.3788 3.8183C69.8725 4.0974 70.0286 5.08512 70.8076 4.70612C71.4794 4.37942 71.0312 3.56622 71.2222 3.00092C72.0929 4.80912 71.4963 6.37941 69.9359 7.23831C68.6354 7.95391 69.0886 8.3525 69.6101 9.2027C70.5602 10.7474 71.5448 12.3553 70.4197 14.2633C70.3723 13.8221 70.5959 13.3233 70.1516 12.9629C70.0021 12.2625 70.2772 11.3758 69.3083 11.0344C68.7324 10.4476 68.2446 9.7171 67.5638 9.3056C66.2062 8.4851 65.0287 7.11261 63.1602 7.53821V7.53821Z" fill="#D7B369"/>
<path fill-rule="evenodd" clip-rule="evenodd" d="M70.1512 12.9628C70.5956 13.3232 70.3731 13.822 70.4205 14.2621C69.9366 15.1538 70.079 16.6946 68.3304 16.273C68.8796 15.6932 68.9737 14.9628 68.2654 14.6195C66.2513 13.6427 65.1026 11.6071 63.1393 10.5998C63.2818 10.4188 63.5649 10.0971 63.5439 10.0772C63.0987 9.62887 62.5513 9.98708 62.0475 9.92398C61.1087 9.64768 60.9366 8.26738 59.7598 8.33578C60.7295 7.37278 61.9834 7.62216 63.1601 7.53796C65.0294 7.11246 66.2069 8.48498 67.5634 9.30548C68.2442 9.71698 68.7333 10.4475 69.3083 11.0332C69.3083 12.0623 69.3083 13.0915 69.3083 14.3314C69.8991 13.7962 70.0999 13.418 70.1512 12.9628Z" fill="#D7B369"/>
<path fill-rule="evenodd" clip-rule="evenodd" d="M73.1651 15.6222C74.0471 14.8138 74.7725 15.0393 75.6263 15.7905C77.5234 17.4598 79.5114 19.0245 81.4628 20.6315C81.1352 21.5903 80.8948 22.5967 80.0567 23.2845C79.069 22.4859 77.9677 21.8486 77.1413 20.8284C76.6336 20.202 75.8788 19.7628 74.9851 19.7656C75.55 19.2946 75.568 19.1886 74.7357 19.0413C73.3957 18.8037 71.4602 19.1827 71.6207 16.7939C72.3657 16.7069 72.6706 16.039 73.1651 15.6222V15.6222Z" fill="#D7B369"/>
<path fill-rule="evenodd" clip-rule="evenodd" d="M60.4953 44.4144C59.5087 44.3451 58.3567 44.542 58.5269 42.8994C58.5892 42.3016 58.3163 42.2214 57.6958 42.5025C56.8181 42.9013 57.1544 42.0057 57.0041 41.6365C56.7625 40.8003 57.9906 40.951 57.9393 40.1611C56.3134 39.2814 54.4568 38.5669 53.8789 36.4752C54.1423 36.2673 54.4074 36.0595 54.6705 35.8516C55.4147 36.287 55.3317 37.7476 56.6607 37.4617L56.6478 37.4516C56.7179 37.8368 56.8428 37.7467 56.9853 37.4904C59.1317 38.0216 60.3132 40.004 62.1864 40.9597C62.7573 41.2517 63.2333 41.6604 63.9023 41.2932C63.739 42.1709 62.8852 42.3521 62.3379 42.8419C61.8302 43.1934 61.1107 43.2772 60.888 43.9889L60.8594 44.0116C60.7415 44.1283 60.624 44.2453 60.5062 44.3628L60.4953 44.4144Z" fill="#D7B369"/>
<path fill-rule="evenodd" clip-rule="evenodd" d="M84.6584 22.8428C84.9294 24.1127 86.0181 24.5837 86.9729 25.1525C88.8144 26.249 88.955 26.7725 87.6893 28.2045C86.5426 28.2154 85.3945 28.2272 84.2478 28.2381C84.0509 26.9893 82.8189 26.9576 82.0548 26.3747C81.9072 26.2678 81.7608 26.161 81.6144 26.0541C81.5442 25.2715 81.0584 24.7943 80.418 24.4314C81.0475 23.4041 81.6766 22.3769 82.3061 21.3486C83.0632 21.7693 83.6747 22.4787 84.6237 22.5183C84.6444 22.6252 84.6565 22.734 84.6584 22.8428V22.8428Z" fill="#D7B369"/>
<path fill-rule="evenodd" clip-rule="evenodd" d="M75.9149 4.53135C78.4344 4.51455 81.0202 6.71624 81.1427 8.98554C80.3234 10.0668 81.6881 10.8211 81.5644 11.7976C79.7119 11.8214 77.8723 10.4587 77.4339 8.49265C77.2044 7.46155 77.0154 7.60683 76.5225 8.26093C75.702 7.85333 74.8344 7.49205 74.6582 6.42725C74.6572 5.51705 75.3102 5.04105 75.9149 4.53135Z" fill="#D7B369"/>
<path fill-rule="evenodd" clip-rule="evenodd" d="M91.5459 22.5156C90.5464 22.3128 89.8942 21.7487 89.6836 20.7254C92.5394 19.0984 92.5563 19.0796 95.0864 21.2429C96.3344 22.3086 98.2472 22.7697 98.4472 24.8233C98.2065 25.4744 98.8242 26.5768 97.999 26.7717C96.8845 27.034 96.7541 25.8275 96.4076 25.0598C96.3622 24.9588 96.2245 24.8993 96.1297 24.8211L96.1305 24.8231C95.9998 24.6983 95.8693 24.5738 95.7378 24.4489C95.6079 24.3213 95.4783 24.1937 95.3487 24.066C94.1058 23.489 93.5437 21.2416 91.5459 22.5154V22.5156Z" fill="#D7B369"/>
<path fill-rule="evenodd" clip-rule="evenodd" d="M87.6574 8.35609C85.3109 7.99279 84.086 5.9384 82.3047 4.7271C81.4321 4.1344 80.6107 3.47241 79.6489 3.01631C80.4452 2.20481 78.9145 1.80121 79.3025 1.02141C79.4559 0.713608 79.2508 0.217691 79.7308 0.068191C80.1011 -0.046509 80.2999 0.236505 80.48 0.507705C81.8189 2.51371 83.6702 3.71979 85.9463 4.56889C87.4506 5.12999 87.8089 6.75889 87.6574 8.35609V8.35609Z" fill="#D7B369"/>
<path fill-rule="evenodd" clip-rule="evenodd" d="M62.3653 49.4082C64.1743 50.8007 65.164 52.9934 67.1143 54.2532C67.7357 54.6551 67.8723 55.3427 67.5062 55.9169C67.0944 56.562 66.3701 56.6916 65.6448 56.3926C64.0248 55.7258 63.3409 54.1643 62.5861 52.8066C62.1101 51.9525 61.629 51.0461 61.2383 50.1219C61.6141 49.8843 61.9892 49.6458 62.3653 49.4082V49.4082Z" fill="#D7B369"/>
<path fill-rule="evenodd" clip-rule="evenodd" d="M47.8366 29.0632C48.3185 31.0692 50.3987 30.7802 51.6327 31.7073C50.9567 32.796 50.3443 33.9132 50.0621 35.1797C49.5645 35.5766 49.8644 36.2476 49.601 36.8156C49.1292 34.688 46.758 34.5592 45.9277 32.9474C46.2276 32.2487 46.7937 31.7746 47.3269 31.2692C47.5112 31.095 47.9199 30.8781 47.4576 30.615C47.2893 30.5191 46.9875 30.6574 46.7471 30.6882C46.4304 30.518 46.3216 30.2388 46.3356 29.8966C46.8422 29.6304 47.1322 28.9724 47.8366 29.0632V29.0632Z" fill="#D7B369"/>
<path fill-rule="evenodd" clip-rule="evenodd" d="M76.5215 8.25984C77.0141 7.60684 77.2031 7.46126 77.4329 8.49236C77.8713 10.4588 79.7109 11.8212 81.5642 11.7976C82.912 13.3146 84.2113 14.8671 85.0405 16.7482C85.0315 17.0105 85.0229 17.2729 85.0139 17.534L85.0189 17.5289C82.5549 15.7664 79.7869 14.3712 78.0632 11.7139C77.793 11.2974 77.4051 10.958 77.0716 10.5821C76.7885 9.86854 77.4208 8.96225 76.6034 8.36055L76.5215 8.25984Z" fill="#D7B369"/>
<path fill-rule="evenodd" clip-rule="evenodd" d="M67.4662 1.44132C67.7849 1.37512 68.1243 1.27103 67.565 1.04163C67.2612 0.916728 66.8486 1.07922 66.6309 0.696322C66.8042 0.623122 66.9734 0.539726 67.1504 0.476626C70.0023 -0.539574 70.8177 -0.0341809 71.2205 2.99982C71.0306 3.56592 71.4778 4.37934 70.806 4.70584C70.0281 5.08404 69.8719 4.09743 69.3779 3.81833C68.5268 3.33723 67.9638 2.42981 66.9525 2.19641C67.1236 1.94511 67.2948 1.69262 67.4662 1.44132V1.44132Z" fill="#D7B369"/>
<path fill-rule="evenodd" clip-rule="evenodd" d="M62.3649 49.4077C61.9888 49.6453 61.6137 49.8838 61.2379 50.1214L61.2459 50.1323C61.3231 49.5373 61.2469 49.0378 60.5135 48.9407C59.332 47.8672 57.8863 46.8588 59.5547 45.0764C59.8378 44.8113 60.3483 44.8705 60.4947 44.4144C60.4957 44.4144 60.5068 44.3631 60.5068 44.3631C60.7382 44.3611 60.8818 44.2691 60.8591 44.0116L60.8888 43.9889C61.4655 44.1819 61.8989 43.8792 62.3295 43.5684C62.957 43.999 62.2908 44.3987 62.2989 44.8133C61.9287 46.07 60.9727 47.3098 62.1831 48.6162C62.2434 48.8796 62.3048 49.1435 62.3651 49.4077H62.3649Z" fill="#D7B369"/>
<path fill-rule="evenodd" clip-rule="evenodd" d="M59.7588 8.33643C60.9364 8.26823 61.1086 9.64862 62.0467 9.92352C61.0531 10.6332 60.4635 11.6691 59.8242 12.6658C58.79 11.7148 58.1409 10.0988 56.2637 10.6074C57.1543 9.42902 58.2615 8.58183 59.7588 8.33643V8.33643Z" fill="#D7B369"/>
<path fill-rule="evenodd" clip-rule="evenodd" d="M92.7496 35.1796C91.381 35.4963 90.5981 36.6046 89.6233 37.4618C89.3136 37.7339 88.9801 38.2385 88.5122 38.0228C87.9571 37.7656 88.037 37.136 88.1332 36.6541C88.3874 35.3885 88.6755 34.1001 90.4023 34.1436C91.184 34.4889 91.9667 34.8343 92.7496 35.1796V35.1796Z" fill="#D7B369"/>
<path fill-rule="evenodd" clip-rule="evenodd" d="M82.0539 26.375C82.8177 26.9579 84.0497 26.9887 84.2466 28.2384C83.0811 28.8401 81.916 29.4418 80.7505 30.0435C80.417 29.706 80.0824 29.3686 79.748 29.0322C80.1199 28.3097 81.0137 27.9792 81.1919 27.1105L81.1761 27.1262C81.654 27.0917 81.7689 26.6345 82.0539 26.375V26.375Z" fill="#D7B369"/>
<path fill-rule="evenodd" clip-rule="evenodd" d="M92.7496 35.1787C91.9667 34.8334 91.184 34.4881 90.4023 34.1428C91.1077 33.7181 90.046 32.8662 90.8098 32.4536C91.4373 31.9747 91.9083 31.1472 92.9285 31.6036C93.9022 32.0398 93.167 32.8771 93.4085 33.4777C93.3541 34.108 93.3501 34.7582 92.7496 35.1787V35.1787Z" fill="#D7B369"/>
<path fill-rule="evenodd" clip-rule="evenodd" d="M96.1294 24.8213C96.2245 24.8995 96.3628 24.959 96.4085 25.06C96.7538 25.8277 96.8845 27.0342 97.9987 26.7719C98.8239 26.577 98.2074 25.4746 98.4478 24.8235C98.6251 25.2945 98.8932 25.7526 98.9614 26.2395C99.1 27.23 98.5241 28.0306 97.7493 28.4048C96.9664 28.7826 96.4144 27.9961 95.8503 27.4825C94.9883 26.6968 95.4376 26.2415 96.1333 25.711C96.2758 25.6022 96.1383 25.1273 96.1293 24.8213H96.1294Z" fill="#D7B369"/>
<path fill-rule="evenodd" clip-rule="evenodd" d="M46.3369 29.8965C46.322 30.2388 46.4318 30.5179 46.7476 30.6881C45.7947 31.7698 44.5546 32.7008 44.7703 34.406L44.7682 34.4068C44.4198 34.5356 44.412 34.8343 44.403 35.1322C43.9876 35.3648 43.8373 35.9833 43.2305 35.9367C43.3245 33.4391 44.3329 31.4116 46.3369 29.8965H46.3369Z" fill="#D7B369"/>
<path fill-rule="evenodd" clip-rule="evenodd" d="M40.1391 45.1113C40.4993 46.4622 41.5879 45.6774 42.345 45.8656C42.34 46.3256 42.0856 46.5632 41.6474 46.584C39.7711 46.6729 37.892 46.6869 36 46.9254C37.1904 45.83 38.6637 45.4695 40.1391 45.1113V45.1113Z" fill="#D7B369"/>
<path fill-rule="evenodd" clip-rule="evenodd" d="M74.6575 6.42773C74.8336 7.49253 75.7015 7.85271 76.5229 8.26141C76.522 8.26041 76.6039 8.36133 76.6039 8.36133C76.5417 8.72963 76.4794 9.09844 76.416 9.46674C76.1282 9.82104 76.2101 10.9579 75.2839 9.93271C74.8853 9.49231 74.7189 8.75432 73.9551 8.69592C73.9601 8.44542 73.9651 8.19523 73.9688 7.94583C74.3349 7.66083 74.3004 7.25411 74.3032 6.85721C74.421 6.71361 74.5397 6.57113 74.6575 6.42773V6.42773Z" fill="#D7B369"/>
<path fill-rule="evenodd" clip-rule="evenodd" d="M62.183 48.6157C60.9729 47.3093 61.9288 46.0695 62.2988 44.8125C62.2601 46.0813 62.2217 47.3481 62.183 48.6157Z" fill="#D7B369"/>
<path fill-rule="evenodd" clip-rule="evenodd" d="M53.591 32.8906C53.595 33.8932 53.6 34.8957 53.6039 35.8971C53.017 34.8977 52.9963 33.8951 53.591 32.8906Z" fill="#D7B369"/>
<path fill-rule="evenodd" clip-rule="evenodd" d="M62.3297 43.568C61.8991 43.8788 61.4657 44.1815 60.8887 43.9888C61.1115 43.2771 61.8309 43.1941 62.3383 42.8418C62.3353 43.0842 62.3324 43.3257 62.3294 43.568H62.3297Z" fill="#D7B369"/>
<path fill-rule="evenodd" clip-rule="evenodd" d="M85.5671 19.0126C85.1161 18.6176 84.9607 18.113 85.0198 17.5293L85.0148 17.5353C85.1264 17.5383 85.2383 17.5413 85.3503 17.5443C85.4846 18.0243 85.844 18.4714 85.5668 19.0128L85.5671 19.0126Z" fill="#D7B369"/>
<path fill-rule="evenodd" clip-rule="evenodd" d="M60.5132 48.9414C61.2456 49.0373 61.3227 49.5372 61.2456 50.1319C60.3836 50.1159 60.4748 49.5122 60.5132 48.9414Z" fill="#D7B369"/>
<path fill-rule="evenodd" clip-rule="evenodd" d="M41.3092 44.368C41.0837 44.8754 40.7274 45.1803 40.1367 45.1161C40.2416 44.4185 40.7541 44.359 41.3092 44.368Z" fill="#D7B369"/>
<path fill-rule="evenodd" clip-rule="evenodd" d="M59.6917 18.6916C59.3988 18.3592 59.3601 17.9731 59.4591 17.5605C59.8095 17.882 59.7489 18.2868 59.6917 18.6916Z" fill="#D7B369"/>
<path fill-rule="evenodd" clip-rule="evenodd" d="M74.303 6.85742C74.3 7.25322 74.3347 7.66074 73.9686 7.94574C73.9103 7.53034 73.8458 7.11352 74.303 6.85742Z" fill="#D7B369"/>
<path fill-rule="evenodd" clip-rule="evenodd" d="M85.3492 17.5437C85.2375 17.5407 85.1256 17.5377 85.0137 17.5347C85.0227 17.2724 85.0316 17.0101 85.0406 16.749C85.4027 16.9134 85.4036 17.2172 85.3492 17.5437V17.5437Z" fill="#D7B369"/>
<path fill-rule="evenodd" clip-rule="evenodd" d="M95.7363 24.4492C95.867 24.574 95.9986 24.6986 96.1293 24.8234C95.9986 24.6986 95.867 24.574 95.7363 24.4492Z" fill="#D7B369"/>
<path fill-rule="evenodd" clip-rule="evenodd" d="M95.3477 24.0664C95.4776 24.1941 95.6072 24.3217 95.7368 24.4493C95.6072 24.3217 95.4776 24.1941 95.3477 24.0664Z" fill="#D7B369"/>
<path fill-rule="evenodd" clip-rule="evenodd" d="M59.7059 12.9658C59.7395 13.3913 59.7019 13.7989 59.4209 14.1473C59.3356 13.71 59.2585 13.2746 59.7059 12.9658Z" fill="#D7B369"/>
<path fill-rule="evenodd" clip-rule="evenodd" d="M82.0552 26.3753C81.7702 26.6348 81.6554 27.092 81.1775 27.1265C80.9617 26.6219 81.5 26.4238 81.6148 26.0547C81.7612 26.1615 81.9087 26.2684 82.0552 26.3753Z" fill="#D7B369"/>
<path fill-rule="evenodd" clip-rule="evenodd" d="M44.4023 35.1326C44.4113 34.8347 44.4192 34.5357 44.7664 34.4072C44.7656 34.709 44.7624 35.0109 44.4023 35.1326Z" fill="#D7B369"/>
<path fill-rule="evenodd" clip-rule="evenodd" d="M56.9869 37.4908C56.8433 37.7469 56.7196 37.8379 56.6484 37.452C56.7653 37.4312 56.8781 37.4441 56.9869 37.4908Z" fill="#D7B369"/>
<path fill-rule="evenodd" clip-rule="evenodd" d="M84.6577 22.8424C84.6557 22.7336 84.6437 22.6248 84.623 22.5179C84.8844 22.3863 85.1456 22.2548 85.4079 22.1221C85.4514 22.6685 85.1593 22.8654 84.6577 22.8424V22.8424Z" fill="#D7B369"/>
<path fill-rule="evenodd" clip-rule="evenodd" d="M67.4676 1.44091C67.2962 1.69221 67.1251 1.94471 66.954 2.19601C66.7324 2.21681 66.5105 2.23752 66.2889 2.25832C66.2455 2.21092 66.2 2.16541 66.1504 2.12081C66.3218 1.37551 66.9133 1.44401 67.4676 1.44091V1.44091Z" fill="#D7B369"/>
<path fill-rule="evenodd" clip-rule="evenodd" d="M60.8593 44.0117C60.8809 44.2689 60.7385 44.3609 60.5059 44.3629C60.6237 44.2454 60.7415 44.1284 60.8593 44.0117Z" fill="#D7B369"/>
<path fill-rule="evenodd" clip-rule="evenodd" d="M1.24852 81.452C1.59742 81.452 1.89652 81.3347 2.14482 81.1006C2.39342 80.8661 2.52462 80.5844 2.53772 80.255V69.6718C2.51102 69.3427 2.41042 69.1021 2.23552 68.9498C1.91322 68.6712 1.58442 68.532 1.24852 68.532H0.986328V68.3418H8.70302C9.36122 68.3418 9.90522 68.2945 10.3349 68.1995C10.7649 68.1046 11.0266 68.0379 11.1207 68V71.325L10.9194 71.306V71.0968C10.9194 70.3116 10.6105 69.7543 9.99283 69.4249C9.69713 69.2602 9.34792 69.1715 8.94482 69.159H5.56032V74.688H8.21942C8.71662 74.6753 9.12602 74.5137 9.44852 74.2036C9.77082 73.8932 9.93242 73.5099 9.93242 73.0538V72.8829H10.1337V77.2721H9.93242V77.1199C9.93242 76.6513 9.77453 76.2649 9.45853 75.9611C9.14303 75.6569 8.74362 75.4987 8.25972 75.486H5.56032V80.825H8.19933C9.17983 80.825 10.0027 80.5589 10.6674 80.0271C11.3324 79.495 11.826 78.7413 12.1485 77.7659H12.3498L11.4232 81.642H0.986328V81.452H1.24852ZM19.5027 81.452C19.8517 81.452 20.1507 81.3347 20.3991 81.1006C20.6477 80.8661 20.7789 80.5844 20.7919 80.255V69.7288C20.7789 69.3997 20.6477 69.1177 20.3991 68.8835C20.1507 68.6491 19.8517 68.532 19.5027 68.532H19.2405V68.3418H25.3659L25.3458 68.532H25.1037C24.7548 68.532 24.4523 68.6491 24.1972 68.8835C23.9418 69.1177 23.8145 69.3997 23.8145 69.7288V80.825H26.4536C27.4341 80.825 28.257 80.5589 28.9217 80.0271C29.5867 79.495 30.0802 78.7413 30.4028 77.7659H30.6043L29.6774 81.642H19.2405V81.452H19.5027ZM51.1552 68.532H50.8732C50.4704 68.532 50.0874 68.6397 49.7249 68.8549C49.362 69.0703 49.0732 69.33 48.8583 69.6338L44.8893 75.5999V80.255C44.8893 80.5844 45.0165 80.8661 45.2719 81.1006C45.5271 81.3347 45.8295 81.452 46.1787 81.452H46.4205L46.4407 81.642H40.3158V81.452H40.5775C40.9267 81.452 41.2255 81.3381 41.4741 81.1099C41.7224 80.882 41.8536 80.6034 41.867 80.274V75.5809L38.0186 69.6149C37.8171 69.311 37.5317 69.0544 37.1626 68.8455C36.7932 68.6363 36.4134 68.532 36.0242 68.532H35.7419V68.3418H42.4109V68.532H42.149C41.8536 68.532 41.6252 68.6587 41.4639 68.9119C41.3834 69.0513 41.3431 69.1874 41.3431 69.3203C41.3431 69.4536 41.3769 69.5834 41.4437 69.7098L44.3249 74.65L47.3271 69.7098C47.3942 69.5834 47.4277 69.4536 47.4277 69.3203C47.4277 69.1874 47.3809 69.0576 47.2868 68.9309C47.1255 68.665 46.897 68.532 46.6017 68.532H46.3599V68.3418H51.1552V68.532ZM57.0386 79.8749C57.0386 78.9629 57.2469 78.184 57.663 77.538H57.8447C57.8311 77.6392 57.8243 77.7406 57.8243 77.8418C57.8243 78.716 58.1568 79.4791 58.8215 80.1314C59.4866 80.7839 60.3968 81.1099 61.5519 81.1099C62.4519 81.1099 63.1534 80.9072 63.6572 80.5019C64.1609 80.0965 64.4129 79.5837 64.4129 78.9629C64.4129 78.5956 64.2884 78.2662 64.0401 77.9751C63.7915 77.6837 63.3785 77.3605 62.8008 77.0059L59.2952 74.821C57.9924 73.9975 57.341 72.9844 57.341 71.7808C57.341 71.6544 57.3543 71.5277 57.3813 71.401C57.4618 70.4003 57.8748 69.5959 58.6203 68.9878C59.3658 68.3798 60.363 68.0759 61.6123 68.0759C62.351 68.0759 63.2643 68.1391 64.3525 68.2658H65.6216L65.3597 71.0588H65.1584C65.1584 70.4003 64.8996 69.8714 64.3826 69.4726C63.8655 69.0734 63.1773 68.8739 62.3175 68.8739C61.2695 68.8739 60.511 69.178 60.0407 69.7861C59.7989 70.0772 59.6779 70.3686 59.6779 70.66C59.6779 70.9514 59.7383 71.1983 59.8593 71.401C60.0475 71.7303 60.4571 72.085 61.0884 72.4648L64.9364 74.821C66.1454 75.5682 66.75 76.5436 66.75 77.7469C66.75 79.0897 66.2631 80.1189 65.2891 80.8344C64.3154 81.5501 63.0228 81.9079 61.4107 81.9079C60.4974 81.9079 59.6546 81.8035 58.8819 81.5943C58.1098 81.3854 57.5423 81.1037 57.1797 80.7491C57.0856 80.5084 57.0386 80.217 57.0386 79.8749ZM74.3259 81.452C74.6749 81.452 74.9739 81.3347 75.2222 81.1006C75.4708 80.8661 75.6018 80.5844 75.6151 80.255V69.7098C75.6018 69.3807 75.4708 69.1021 75.2222 68.8739C74.9739 68.646 74.6749 68.532 74.3259 68.532H74.0637V68.3418H80.1888L80.1687 68.532H79.9266C79.5777 68.532 79.2752 68.646 79.0201 68.8739C78.765 69.1021 78.6374 69.3807 78.6374 69.7098V80.255C78.6374 80.5844 78.765 80.8661 79.0201 81.1006C79.2752 81.3347 79.5777 81.452 79.9266 81.452H80.1687L80.1888 81.642H74.0637V81.452H74.3259ZM102.452 68.532H102.11C101.828 68.532 101.586 68.6173 101.385 68.7886C101.183 68.9595 101.076 69.1715 101.062 69.4249V76.835C101.062 78.3929 100.545 79.628 99.5109 80.5399C98.4765 81.452 97.0595 81.9079 95.2595 81.9079C93.1375 81.9079 91.5121 81.4614 90.3836 80.5685C89.2554 79.6756 88.6913 78.4374 88.6913 76.854V69.4819C88.6777 69.1021 88.4966 68.8231 88.1474 68.646C87.9861 68.57 87.8115 68.532 87.6235 68.532H87.3012V68.3418H93.1037V68.532H92.7814C92.4861 68.532 92.2375 68.6173 92.0359 68.7886C91.8344 68.9595 91.727 69.178 91.7134 69.4439V76.702C91.7134 78.0445 92.0629 79.1086 92.7613 79.8938C93.4595 80.6793 94.4199 81.0719 95.6425 81.0719C96.8648 81.0719 97.8317 80.7014 98.5437 79.9605C99.2555 79.2195 99.6183 78.2157 99.6317 76.9489V69.4439C99.605 69.0766 99.4236 68.8107 99.0877 68.646C98.9264 68.57 98.7518 68.532 98.5638 68.532H98.2415V68.3418H102.452V68.532ZM127.698 81.452H128.02V81.642H121.976V81.471H122.278C122.507 81.4583 122.701 81.3696 122.862 81.2049C123.024 81.0402 123.091 80.8568 123.064 80.6541L122.278 73.7568L118.491 79.9128C117.993 80.6983 117.738 81.4013 117.725 82.0221H117.523L112.345 73.8138L111.559 80.6541C111.533 80.8568 111.6 81.0436 111.761 81.2145C111.922 81.3854 112.117 81.471 112.345 81.471H112.648V81.642H108.437V81.452H108.759C109.135 81.452 109.461 81.3443 109.736 81.1289C110.011 80.9138 110.176 80.6223 110.23 80.255L111.902 68.0759H112.083L118.329 77.7659L124.333 68.0759H124.515L126.227 80.255C126.294 80.6223 126.466 80.9138 126.741 81.1289C127.016 81.3443 127.335 81.452 127.698 81.452V81.452Z" fill="#D7B369"/>
<path d="M0 86.4678H128.158" stroke="#D7B369" stroke-width="1.0001"/>
<path fill-rule="evenodd" clip-rule="evenodd" d="M5.84766 96.3517V92.0626H6.54465V96.3517H5.84766ZM8.27126 96.3517V91.8926L10.9953 94.5146C11.0701 94.5886 11.1454 94.6677 11.2213 94.7516C11.2973 94.8358 11.3771 94.9307 11.461 95.0367V92.0626H12.1062V96.5187L9.32635 93.8496C9.25205 93.7776 9.18005 93.7016 9.11115 93.6217C9.04115 93.5406 8.97515 93.4576 8.91335 93.3697V96.3517H8.27126ZM15.2009 92.6548V96.3517H14.5038V92.6548H13.364V92.0626H16.3349V92.6548H15.2009ZM17.5925 96.3517V92.0626H19.9863V92.6548H18.2895V93.7297H19.9863V94.3417H18.2895V95.7278H19.9863V96.3517H17.5925ZM22.207 93.8907H22.3329C22.7019 93.8907 22.9467 93.8476 23.0678 93.7617C23.1888 93.6758 23.2498 93.5236 23.2498 93.3048C23.2498 93.0686 23.1848 92.9028 23.0547 92.8056C22.9249 92.7086 22.6838 92.6607 22.3329 92.6607H22.207V93.8907ZM22.1628 94.4327V96.3517H21.5099V92.0626H22.482C22.7668 92.0626 22.9888 92.0816 23.1458 92.1188C23.3029 92.1556 23.4369 92.2166 23.5489 92.3027C23.6819 92.4068 23.7839 92.5406 23.857 92.7047C23.929 92.8688 23.965 93.0477 23.965 93.2435C23.965 93.5868 23.882 93.8558 23.7159 94.0506C23.5498 94.2447 23.3039 94.3618 22.9799 94.4006L24.4568 96.3517H23.6688L22.2419 94.4327H22.1628ZM25.6065 96.3517V92.0626H26.3036V96.3517H25.6065ZM31.701 94.2158C31.701 93.9998 31.661 93.7938 31.5822 93.5976C31.5031 93.4026 31.39 93.2288 31.2412 93.0766C31.0972 92.9258 30.9292 92.8107 30.7393 92.7296C30.5482 92.6486 30.348 92.6077 30.1371 92.6077C29.9259 92.6077 29.725 92.6477 29.5351 92.7276C29.3452 92.8076 29.1751 92.9238 29.0272 93.0766C28.8792 93.2268 28.7652 93.3997 28.687 93.5948C28.609 93.7906 28.5702 93.9976 28.5702 94.2158C28.5702 94.4327 28.609 94.6376 28.687 94.8318C28.7652 95.0248 28.8792 95.1978 29.0272 95.3497C29.1751 95.5028 29.344 95.6187 29.5342 95.6986C29.723 95.7789 29.9239 95.8188 30.1371 95.8188C30.346 95.8188 30.545 95.7789 30.7329 95.6986C30.9212 95.6187 31.091 95.5028 31.2412 95.3497C31.39 95.1978 31.5031 95.0248 31.5822 94.8298C31.661 94.6356 31.701 94.4307 31.701 94.2158V94.2158ZM32.4282 94.2158C32.4282 94.5208 32.3711 94.8088 32.2571 95.0798C32.142 95.3517 31.9762 95.5938 31.7571 95.8066C31.536 96.0198 31.2872 96.1828 31.0103 96.2956C30.733 96.4087 30.4421 96.4657 30.1371 96.4657C29.8281 96.4657 29.5343 96.4087 29.2542 96.2948C28.973 96.1797 28.726 96.0178 28.5111 95.8066C28.292 95.5938 28.126 95.3528 28.0132 95.0827C27.9001 94.8137 27.843 94.5248 27.843 94.2158C27.843 93.9088 27.9001 93.6197 28.0132 93.3487C28.126 93.0766 28.292 92.8337 28.5111 92.6188C28.73 92.4056 28.9781 92.2438 29.2551 92.1326C29.532 92.0215 29.8261 91.9657 30.1371 91.9657C30.4461 91.9657 30.7381 92.0215 31.0142 92.1326C31.2912 92.2438 31.538 92.4056 31.7571 92.6188C31.9762 92.8356 32.142 93.0806 32.2571 93.3527C32.3711 93.6257 32.4282 93.9128 32.4282 94.2158V94.2158ZM34.6487 93.8907H34.7747C35.1437 93.8907 35.3886 93.8476 35.5096 93.7617C35.6306 93.6758 35.6917 93.5236 35.6917 93.3048C35.6917 93.0686 35.6267 92.9028 35.4966 92.8056C35.3667 92.7086 35.1256 92.6607 34.7747 92.6607H34.6487V93.8907ZM34.6046 94.4327V96.3517H33.9518V92.0626H34.9237C35.2086 92.0626 35.4305 92.0816 35.5876 92.1188C35.7446 92.1556 35.8788 92.2166 35.9907 92.3027C36.1237 92.4068 36.2257 92.5406 36.2989 92.7047C36.3709 92.8688 36.4069 93.0477 36.4069 93.2435C36.4069 93.5868 36.3238 93.8558 36.1577 94.0506C35.9916 94.2447 35.7458 94.3618 35.4218 94.4006L36.8987 96.3517H36.1106L34.6837 94.4327H34.6046ZM41.631 95.7216H42.2169C42.539 95.7216 42.781 95.7006 42.942 95.6578C43.1031 95.6147 43.2428 95.5416 43.363 95.4407C43.5248 95.3018 43.646 95.1297 43.7271 94.9236C43.8081 94.7178 43.8488 94.4778 43.8488 94.2036C43.8488 93.9307 43.8081 93.6906 43.7271 93.4848C43.646 93.2787 43.5248 93.1066 43.363 92.9677C43.2419 92.8668 43.096 92.7937 42.9279 92.7506C42.7589 92.7078 42.4939 92.6865 42.135 92.6865H41.8831H41.631V95.7216ZM40.9341 96.3517V92.0626H41.874C42.486 92.0626 42.9161 92.0935 43.1649 92.1548C43.4141 92.2166 43.632 92.3197 43.8199 92.4637C44.068 92.6537 44.256 92.8966 44.3841 93.1937C44.512 93.4907 44.576 93.8298 44.576 94.2096C44.576 94.5906 44.512 94.9287 44.3841 95.2227C44.256 95.5166 44.068 95.7587 43.8199 95.9506C43.632 96.0946 43.4189 96.1978 43.18 96.2596C42.9402 96.3208 42.568 96.3517 42.062 96.3517H41.874H40.9341ZM46.0996 96.3517V92.0626H48.4934V92.6548H46.7967V93.7297H48.4934V94.3417H46.7967V95.7278H48.4934V96.3517H46.0996ZM49.7711 95.4928L50.327 95.2357C50.38 95.4268 50.4769 95.5728 50.6169 95.6728C50.7581 95.7738 50.9381 95.8236 51.1561 95.8236C51.363 95.8236 51.5279 95.7658 51.6501 95.6507C51.772 95.5356 51.8329 95.3817 51.8329 95.1887C51.8329 94.9367 51.6241 94.7116 51.206 94.5146C51.147 94.4857 51.103 94.4636 51.071 94.4508C50.599 94.2198 50.2841 94.0117 50.127 93.8246C49.97 93.6387 49.891 93.4097 49.891 93.1406C49.891 92.7906 50.0099 92.5077 50.2469 92.2905C50.4839 92.0737 50.7949 91.9657 51.1801 91.9657C51.4959 91.9657 51.761 92.0266 51.9742 92.1488C52.1871 92.2707 52.3341 92.4467 52.416 92.6746L51.8709 92.9555C51.785 92.8206 51.6909 92.7225 51.588 92.6607C51.4859 92.5978 51.368 92.5666 51.2351 92.5666C51.048 92.5666 50.8989 92.6157 50.7889 92.7126C50.6781 92.8107 50.6231 92.9417 50.6231 93.1058C50.6231 93.3637 50.8649 93.6038 51.3499 93.8258C51.387 93.8436 51.416 93.8578 51.437 93.8666C51.8611 94.0628 52.1522 94.2538 52.3112 94.4398C52.4691 94.6266 52.5482 94.8596 52.5482 95.1388C52.5482 95.5447 52.4201 95.8679 52.1641 96.1068C51.9081 96.3458 51.5632 96.4657 51.1272 96.4657C50.7621 96.4657 50.463 96.3818 50.2292 96.2137C49.9962 96.0456 49.8431 95.8058 49.7711 95.4928V95.4928ZM54.0465 96.3517V92.0626H54.7436V96.3517H54.0465ZM58.8462 94.1546H60.5453C60.5453 94.1838 60.546 94.2246 60.5482 94.2776C60.5542 94.4168 60.5573 94.5098 60.5573 94.5588C60.5573 95.1626 60.3843 95.6306 60.0382 95.9648C59.6932 96.2987 59.2062 96.4657 58.5772 96.4657C58.2251 96.4657 57.9122 96.4138 57.6361 96.3106C57.3611 96.2066 57.1203 96.0507 56.9134 95.8418C56.7101 95.6349 56.5542 95.3916 56.4462 95.1116C56.3371 94.8326 56.2831 94.5336 56.2831 94.2158C56.2831 93.8918 56.3381 93.5928 56.4492 93.3198C56.5592 93.0457 56.7222 92.8047 56.9391 92.5955C57.1483 92.3906 57.3933 92.2347 57.6753 92.1267C57.9562 92.0195 58.2572 91.9657 58.5772 91.9657C58.9151 91.9657 59.2173 92.0278 59.4843 92.1508C59.7502 92.2735 59.9884 92.4618 60.1973 92.7157L59.6873 93.0995C59.5422 92.9317 59.3792 92.8067 59.1984 92.7248C59.0164 92.6426 58.813 92.6018 58.5883 92.6018C58.1242 92.6018 57.7452 92.7506 57.451 93.0488C57.157 93.3467 57.0103 93.7337 57.0103 94.2096C57.0103 94.6946 57.157 95.0878 57.451 95.3888C57.7452 95.6907 58.1262 95.8418 58.5942 95.8418C58.993 95.8418 59.3063 95.7488 59.5342 95.5637C59.7632 95.3778 59.8773 95.1258 59.8773 94.8046V94.7436H58.8463L58.8462 94.1546ZM62.0139 96.3517V91.8926L64.7379 94.5146C64.8128 94.5886 64.8879 94.6677 64.9638 94.7516C65.0398 94.8358 65.1197 94.9307 65.2036 95.0367V92.0626H65.8488V96.5187L63.0689 93.8496C62.9946 93.7776 62.9227 93.7016 62.8538 93.6217C62.7838 93.5406 62.7177 93.4576 62.6559 93.3697V96.3517H62.0139ZM67.5576 96.3517V92.0626H69.9514V92.6548H68.2546V93.7297H69.9514V94.3417H68.2546V95.7278H69.9514V96.3517H67.5576ZM72.1721 93.8907H72.2979C72.667 93.8907 72.912 93.8476 73.033 93.7617C73.1541 93.6758 73.215 93.5236 73.215 93.3048C73.215 93.0686 73.1501 92.9028 73.02 92.8056C72.8902 92.7086 72.6488 92.6607 72.2979 92.6607H72.1721V93.8907ZM72.1278 94.4327V96.3517H71.475V92.0626H72.4471C72.732 92.0626 72.954 92.0816 73.111 92.1188C73.268 92.1556 73.402 92.2166 73.514 92.3027C73.6469 92.4068 73.749 92.5406 73.8221 92.7047C73.8941 92.8688 73.9301 93.0477 73.9301 93.2435C73.9301 93.5868 73.8471 93.8558 73.6809 94.0506C73.5148 94.2447 73.2692 94.3618 72.9452 94.4006L74.422 96.3517H73.6339L72.2069 94.4327H72.1278ZM79.6382 93.6157L79.7961 93.5247C79.9053 93.4607 79.9873 93.3856 80.0423 93.3008C80.0973 93.2158 80.1245 93.1208 80.1245 93.0148C80.1245 92.8938 80.0873 92.7945 80.0134 92.7177C79.9382 92.6406 79.8424 92.6018 79.7234 92.6018C79.5924 92.6018 79.4864 92.6406 79.4065 92.7186C79.3262 92.7968 79.2863 92.8977 79.2863 93.0207C79.2863 93.0817 79.2973 93.1398 79.3203 93.1968C79.3424 93.2538 79.3773 93.3068 79.4243 93.3578L79.6382 93.6157ZM80.4081 95.4877L79.4713 94.4066L79.3622 94.4797C79.1573 94.6127 79.0143 94.7346 78.9333 94.8448C78.8522 94.9557 78.8123 95.0778 78.8123 95.2128C78.8123 95.4018 78.8784 95.5629 79.0113 95.6938C79.1443 95.8248 79.3092 95.8897 79.5062 95.8897C79.6534 95.8897 79.8004 95.8568 79.9503 95.7896C80.0991 95.7239 80.2522 95.6227 80.4081 95.4877ZM81.1494 96.3517L80.8044 95.9447C80.6003 96.1187 80.3923 96.2469 80.1783 96.3296C79.9643 96.4127 79.7313 96.4546 79.4773 96.4546C79.0825 96.4546 78.7623 96.3407 78.5151 96.1116C78.2682 95.8837 78.1442 95.5898 78.1442 95.2298C78.1442 94.9857 78.2203 94.7606 78.3723 94.5546C78.5254 94.3488 78.7672 94.1416 79.0995 93.9346L78.9262 93.7478C78.8304 93.6438 78.7572 93.5307 78.7062 93.4077C78.6552 93.2846 78.6302 93.1596 78.6302 93.0326C78.6302 92.7517 78.7331 92.5207 78.9392 92.3396C79.1453 92.1587 79.4103 92.0686 79.7343 92.0686C80.0572 92.0686 80.3124 92.1508 80.5023 92.3138C80.6914 92.4768 80.7863 92.6967 80.7863 92.9737C80.7863 93.1826 80.7202 93.3737 80.5873 93.5466C80.4543 93.7198 80.2424 93.8907 79.9513 94.0608L80.8452 95.0988C80.9314 95.0126 81.0181 94.9149 81.1083 94.8057C81.1981 94.6957 81.2942 94.5696 81.3951 94.4276L81.8062 94.8638C81.7274 94.9888 81.6412 95.1076 81.5454 95.2196C81.4493 95.3327 81.3465 95.4378 81.2342 95.5348L81.9554 96.3517H81.1494ZM87.0095 94.6668H88.2046L87.7654 93.6886C87.7405 93.6257 87.7136 93.5537 87.6866 93.4726C87.6594 93.3918 87.6317 93.3017 87.6045 93.2016C87.5807 93.2957 87.5566 93.3836 87.5297 93.4646C87.5036 93.5457 87.4766 93.6197 87.4497 93.6886L87.0095 94.6668ZM88.9377 96.3517L88.4507 95.2468H86.7527L86.2546 96.3517H85.5215L87.5985 91.8926L89.6726 96.3517H88.9377ZM91.4992 93.8907H91.6252C91.9943 93.8907 92.2391 93.8476 92.3601 93.7617C92.4812 93.6758 92.5421 93.5236 92.5421 93.3048C92.5421 93.0686 92.4772 92.9028 92.3471 92.8056C92.2173 92.7086 91.9761 92.6607 91.6252 92.6607H91.4992V93.8907ZM91.455 94.4327V96.3517H90.8022V92.0626H91.7743C92.0592 92.0626 92.281 92.0816 92.4381 92.1188C92.5951 92.1556 92.7292 92.2166 92.8412 92.3027C92.9741 92.4068 93.0763 92.5406 93.1494 92.7047C93.2214 92.8688 93.2574 93.0477 93.2574 93.2435C93.2574 93.5868 93.1742 93.8558 93.0081 94.0506C92.842 94.2447 92.5962 94.3618 92.2722 94.4006L93.7491 96.3517H92.9612L91.5341 94.4327H91.455ZM98.33 93.1058C98.133 92.9377 97.9241 92.8115 97.7049 92.7276C97.485 92.6437 97.2539 92.6018 97.0118 92.6018C96.5429 92.6018 96.1619 92.7517 95.8677 93.0528C95.5738 93.3538 95.4269 93.7436 95.4269 94.2218C95.4269 94.6847 95.5699 95.0668 95.8559 95.3678C96.1419 95.6686 96.5031 95.8188 96.939 95.8188C97.1919 95.8188 97.434 95.7738 97.6638 95.6836C97.8929 95.5938 98.1128 95.4588 98.3239 95.2768V96.0649C98.1368 96.1998 97.9319 96.2999 97.7119 96.3656C97.4908 96.4328 97.252 96.4657 96.994 96.4657C96.666 96.4657 96.3629 96.4118 96.084 96.3047C95.8059 96.1967 95.5608 96.0388 95.3499 95.8296C95.141 95.6246 94.9809 95.3829 94.868 95.1048C94.7561 94.8267 94.6999 94.5296 94.6999 94.2158C94.6999 93.9006 94.7561 93.6058 94.868 93.3297C94.9809 93.0528 95.143 92.8107 95.3559 92.6018C95.569 92.3906 95.8127 92.2307 96.0888 92.1227C96.3638 92.0136 96.6621 91.9597 96.9821 91.9597C97.2341 91.9597 97.4738 91.9966 97.7029 92.0697C97.9308 92.1426 98.1531 92.2537 98.368 92.4017L98.33 93.1058ZM99.9185 96.3517V92.0626H100.616V93.6446H102.725V92.0626H103.422V96.3517H102.725V94.2688H100.616V96.3517H99.9185ZM105.143 96.3517V92.0626H105.84V96.3517H105.143ZM108.952 92.6548V96.3517H108.255V92.6548H107.116V92.0626H110.087V92.6548H108.952ZM111.344 96.3517V92.0626H113.738V92.6548H112.041V93.7297H113.738V94.3417H112.041V95.7278H113.738V96.3517H111.344ZM118.705 93.1058C118.508 92.9377 118.299 92.8115 118.079 92.7276C117.86 92.6437 117.628 92.6018 117.386 92.6018C116.918 92.6018 116.537 92.7517 116.242 93.0528C115.948 93.3538 115.802 93.7436 115.802 94.2218C115.802 94.6847 115.944 95.0668 116.23 95.3678C116.516 95.6686 116.878 95.8188 117.314 95.8188C117.566 95.8188 117.808 95.7738 118.038 95.6836C118.267 95.5938 118.487 95.4588 118.699 95.2768V96.0649C118.511 96.1998 118.307 96.2999 118.087 96.3656C117.865 96.4328 117.627 96.4657 117.369 96.4657C117.041 96.4657 116.738 96.4118 116.459 96.3047C116.181 96.1967 115.935 96.0388 115.724 95.8296C115.516 95.6246 115.355 95.3829 115.243 95.1048C115.131 94.8267 115.074 94.5296 115.074 94.2158C115.074 93.9006 115.131 93.6058 115.243 93.3297C115.355 93.0528 115.518 92.8107 115.73 92.6018C115.944 92.3906 116.187 92.2307 116.463 92.1227C116.738 92.0136 117.037 91.9597 117.357 91.9597C117.609 91.9597 117.848 91.9966 118.077 92.0697C118.305 92.1426 118.528 92.2537 118.743 92.4017L118.705 93.1058ZM121.679 92.6548V96.3517H120.982V92.6548H119.842V92.0626H122.813V92.6548H121.679Z" fill="#1B1918"/>
</svg>
